<svg width="105" height="40" viewBox="0 0 105 40" fill="none" xmlns="http://www.w3.org/2000/svg">
<path d="M17.286 11.614C17.286 13.1763 16.7915 14.3015 15.8025 14.9895C14.8278 15.6632 13.3945 16 11.5025 16H1.505V0.949999H10.9005C11.7462 0.949999 12.5058 1.00733 13.1795 1.122C13.8675 1.22233 14.4552 1.41583 14.9425 1.7025C15.4298 1.97483 15.8025 2.3475 16.0605 2.8205C16.3328 3.27917 16.469 3.874 16.469 4.605C16.469 5.379 16.3042 6.01683 15.9745 6.5185C15.6448 7.00583 15.222 7.4 14.706 7.701C15.5517 8.002 16.1895 8.4535 16.6195 9.0555C17.0638 9.64317 17.286 10.496 17.286 11.614ZM3.612 6.9485H10.707C11.3233 6.9485 11.8537 6.91983 12.298 6.8625C12.7423 6.80517 13.1007 6.69767 13.373 6.54C13.6597 6.38233 13.8675 6.16733 13.9965 5.895C14.1398 5.60833 14.2115 5.25 14.2115 4.82C14.2115 4.39 14.1327 4.046 13.975 3.788C13.8317 3.51567 13.6095 3.315 13.3085 3.186C13.0218 3.04267 12.6563 2.9495 12.212 2.9065C11.7677 2.8635 11.2517 2.842 10.664 2.842H3.612V6.9485ZM3.612 14.108H11.5025C12.2335 14.108 12.8283 14.0507 13.287 13.936C13.7457 13.807 14.0968 13.6278 14.3405 13.3985C14.5985 13.1548 14.7705 12.8682 14.8565 12.5385C14.9568 12.2088 15.007 11.8433 15.007 11.442C15.007 11.0263 14.964 10.6608 14.878 10.3455C14.792 10.0302 14.62 9.75783 14.362 9.5285C14.104 9.29917 13.7385 9.12717 13.2655 9.0125C12.8068 8.89783 12.1977 8.8405 11.438 8.8405H3.612V14.108ZM33.9066 14.108V16H19.5446V0.949999H33.1971V2.842H21.6516V6.9055H31.0256V8.7975H21.6516V14.108H33.9066ZM37.9064 9.4855V16H35.7994V0.949999H37.9064V7.5075H44.7649L49.7314 0.949999H52.3329L46.7214 8.26L53.2789 16H50.5269L45.0014 9.4855H37.9064ZM62.4773 2.842V16H60.3703V2.842H53.6838V0.949999H69.1853V2.842H62.4773ZM87.0508 8.4535C87.0508 9.84383 86.8358 11.0478 86.4058 12.0655C85.9758 13.0688 85.3738 13.9002 84.5998 14.5595C83.8258 15.2188 82.9013 15.699 81.8263 16C80.7513 16.3153 79.5688 16.473 78.2788 16.473C76.9888 16.473 75.8063 16.3082 74.7313 15.9785C73.6563 15.6345 72.7318 15.1328 71.9578 14.4735C71.1838 13.7998 70.5818 12.9685 70.1518 11.9795C69.7218 10.9762 69.5068 9.808 69.5068 8.475C69.5068 7.11333 69.7218 5.92367 70.1518 4.906C70.5818 3.874 71.1838 3.014 71.9578 2.326C72.7318 1.638 73.6563 1.122 74.7313 0.778C75.8063 0.433999 76.9888 0.261999 78.2788 0.261999C79.5688 0.261999 80.7513 0.441166 81.8263 0.7995C82.9013 1.15783 83.8258 1.681 84.5998 2.369C85.3738 3.057 85.9758 3.90983 86.4058 4.9275C86.8358 5.94517 87.0508 7.1205 87.0508 8.4535ZM71.7428 8.518C71.7428 9.507 71.8933 10.3813 72.1943 11.141C72.5096 11.8863 72.9468 12.517 73.5058 13.033C74.0791 13.5347 74.7671 13.9217 75.5698 14.194C76.3868 14.452 77.2898 14.581 78.2788 14.581C79.2678 14.581 80.1637 14.452 80.9663 14.194C81.7833 13.936 82.4713 13.5562 83.0303 13.0545C83.6037 12.5385 84.0408 11.9078 84.3418 11.1625C84.6572 10.4028 84.8148 9.52133 84.8148 8.518C84.8148 7.529 84.6572 6.6475 84.3418 5.8735C84.0408 5.08517 83.6037 4.41867 83.0303 3.874C82.4713 3.315 81.7833 2.89217 80.9663 2.6055C80.1637 2.3045 79.2678 2.154 78.2788 2.154C77.2898 2.154 76.3868 2.29733 75.5698 2.584C74.7671 2.85633 74.0791 3.26483 73.5058 3.8095C72.9468 4.33983 72.5096 4.99917 72.1943 5.7875C71.8933 6.57583 71.7428 7.486 71.7428 8.518ZM90.8073 10.496V16H88.7003V0.949999H98.6763C99.4646 0.949999 100.181 1.0575 100.826 1.2725C101.471 1.47317 102.016 1.78133 102.46 2.197C102.919 2.59833 103.27 3.10717 103.514 3.7235C103.772 4.33983 103.901 5.0565 103.901 5.8735C103.872 6.66183 103.729 7.34983 103.471 7.9375C103.213 8.52517 102.854 9.00533 102.396 9.378C101.951 9.75067 101.414 10.0302 100.783 10.2165C100.153 10.4028 99.4503 10.496 98.6763 10.496H90.8073ZM90.8073 8.604H98.5903C99.522 8.604 100.267 8.36033 100.826 7.873C101.385 7.38567 101.665 6.67617 101.665 5.7445C101.665 4.82717 101.385 4.11767 100.826 3.616C100.267 3.1 99.522 2.842 98.5903 2.842H90.8073V8.604Z" fill="#273145"/>
<path d="M2.688 31.904V36H1.12V24.8H8.544C9.13067 24.8 9.664 24.88 10.144 25.04C10.624 25.1893 11.0293 25.4187 11.36 25.728C11.7013 26.0267 11.9627 26.4053 12.144 26.864C12.336 27.3227 12.432 27.856 12.432 28.464C12.4107 29.0507 12.304 29.5627 12.112 30C11.92 30.4373 11.6533 30.7947 11.312 31.072C10.9813 31.3493 10.5813 31.5573 10.112 31.696C9.64267 31.8347 9.12 31.904 8.544 31.904H2.688ZM2.688 30.496H8.48C9.17333 30.496 9.728 30.3147 10.144 29.952C10.56 29.5893 10.768 29.0613 10.768 28.368C10.768 27.6853 10.56 27.1573 10.144 26.784C9.728 26.4 9.17333 26.208 8.48 26.208H2.688V30.496ZM15.9121 32.608L14.2321 36H12.4881L18.0081 24.8H20.6641L26.1841 36H24.4241L22.7601 32.608H15.9121ZM16.6001 31.2H22.0721L19.3361 25.664L16.6001 31.2ZM38.9794 32.544C38.9794 33.1733 38.8674 33.7067 38.6434 34.144C38.4194 34.5813 38.126 34.944 37.7634 35.232C37.4114 35.5093 37.006 35.728 36.5474 35.888C36.0887 36.0373 35.6247 36.144 35.1554 36.208C34.6967 36.2827 34.2487 36.3253 33.8114 36.336C33.3847 36.3467 33.0167 36.352 32.7074 36.352C31.6407 36.352 30.718 36.256 29.9394 36.064C29.1607 35.8827 28.5207 35.6267 28.0194 35.296C27.518 34.9547 27.1394 34.5493 26.8834 34.08C26.638 33.6107 26.51 33.0933 26.4994 32.528H28.2114C28.2114 32.8373 28.302 33.1413 28.4834 33.44C28.6647 33.728 28.942 33.984 29.3154 34.208C29.6887 34.432 30.158 34.6133 30.7234 34.752C31.2887 34.88 31.9554 34.944 32.7234 34.944C34.334 34.944 35.502 34.752 36.2274 34.368C36.9527 33.9733 37.3154 33.424 37.3154 32.72C37.3154 31.952 37.086 31.424 36.6274 31.136C36.1687 30.8373 35.422 30.688 34.3874 30.688H29.5714V29.28H33.8114C34.3447 29.28 34.7927 29.2427 35.1554 29.168C35.518 29.0933 35.806 28.9867 36.0194 28.848C36.2434 28.6987 36.398 28.512 36.4834 28.288C36.5794 28.064 36.6274 27.808 36.6274 27.52C36.6274 27.296 36.574 27.0827 36.4674 26.88C36.3714 26.6773 36.2007 26.5013 35.9554 26.352C35.71 26.192 35.374 26.0693 34.9474 25.984C34.5207 25.888 33.9874 25.84 33.3474 25.84C32.558 25.84 31.8647 25.9147 31.2674 26.064C30.6807 26.2133 30.1687 26.416 29.7314 26.672C29.294 26.928 28.9154 27.2213 28.5954 27.552C28.286 27.8827 28.0087 28.2293 27.7634 28.592L26.5634 27.616C26.574 27.6053 26.6327 27.5253 26.7394 27.376C26.846 27.216 27.006 27.0187 27.2194 26.784C27.4434 26.5387 27.726 26.2827 28.0674 26.016C28.4194 25.7387 28.8407 25.4827 29.3314 25.248C29.822 25.0133 30.3927 24.8213 31.0434 24.672C31.694 24.512 32.43 24.432 33.2514 24.432C34.9047 24.432 36.158 24.6827 37.0114 25.184C37.8647 25.6853 38.2914 26.4533 38.2914 27.488C38.2914 28.0747 38.1634 28.56 37.9074 28.944C37.662 29.3173 37.3527 29.616 36.9794 29.84C37.2567 29.936 37.5127 30.064 37.7474 30.224C37.9927 30.3733 38.206 30.56 38.3874 30.784C38.5687 30.9973 38.7127 31.2533 38.8194 31.552C38.926 31.84 38.9794 32.1707 38.9794 32.544ZM51.989 32.736C51.989 33.8987 51.621 34.736 50.885 35.248C50.1597 35.7493 49.093 36 47.685 36H40.245V24.8H47.237C47.8663 24.8 48.4317 24.8427 48.933 24.928C49.445 25.0027 49.8823 25.1467 50.245 25.36C50.6077 25.5627 50.885 25.84 51.077 26.192C51.2797 26.5333 51.381 26.976 51.381 27.52C51.381 28.096 51.2583 28.5707 51.013 28.944C50.7677 29.3067 50.453 29.6 50.069 29.824C50.6983 30.048 51.173 30.384 51.493 30.832C51.8237 31.2693 51.989 31.904 51.989 32.736ZM41.813 29.264H47.093C47.5517 29.264 47.9463 29.2427 48.277 29.2C48.6077 29.1573 48.8743 29.0773 49.077 28.96C49.2903 28.8427 49.445 28.6827 49.541 28.48C49.6477 28.2667 49.701 28 49.701 27.68C49.701 27.36 49.6423 27.104 49.525 26.912C49.4183 26.7093 49.253 26.56 49.029 26.464C48.8157 26.3573 48.5437 26.288 48.213 26.256C47.8823 26.224 47.4983 26.208 47.061 26.208H41.813V29.264ZM41.813 34.592H47.685C48.229 34.592 48.6717 34.5493 49.013 34.464C49.3543 34.368 49.6157 34.2347 49.797 34.064C49.989 33.8827 50.117 33.6693 50.181 33.424C50.2557 33.1787 50.293 32.9067 50.293 32.608C50.293 32.2987 50.261 32.0267 50.197 31.792C50.133 31.5573 50.005 31.3547 49.813 31.184C49.621 31.0133 49.349 30.8853 48.997 30.8C48.6557 30.7147 48.2023 30.672 47.637 30.672H41.813V34.592ZM63.4139 25.92L56.2299 36H53.5419V24.8H55.1099V34.864L62.2939 24.8H64.9819V36H63.4139V25.92ZM72.3454 26.208V36H70.7774V26.208H65.8014V24.8H77.3374V26.208H72.3454ZM87.9608 25.92L80.7768 36H78.0888V24.8H79.6568V34.864L86.8408 24.8H89.5288V36H87.9608V25.92ZM102.332 24.8V36H100.764V31.904H94.9243L92.6043 35.984H90.7963L93.2763 31.696C92.5723 31.4827 92.0176 31.1147 91.6123 30.592C91.2176 30.0693 91.0043 29.36 90.9723 28.464C90.9723 27.856 91.0629 27.3227 91.2443 26.864C91.4363 26.4053 91.6976 26.0267 92.0283 25.728C92.3696 25.4187 92.7803 25.1893 93.2603 25.04C93.7403 24.88 94.2736 24.8 94.8602 24.8H102.332ZM92.6363 28.368C92.6363 29.0613 92.8443 29.5893 93.2603 29.952C93.6763 30.3147 94.2309 30.496 94.9243 30.496H100.764V26.208H94.9243C94.2309 26.208 93.6763 26.4 93.2603 26.784C92.8443 27.1573 92.6363 27.6853 92.6363 28.368Z" fill="#273145"/>
</svg>
